<svg id="Laag_1" data-name="Laag 1" xmlns="http://www.w3.org/2000/svg" xmlns:xlink="http://www.w3.org/1999/xlink" viewBox="0 0 171.08 142.21"><defs><style>.cls-1{fill:none;}.cls-2{clip-path:url(#clip-path);}.cls-3{fill:#ed7b12;opacity:0.5;}</style><clipPath id="clip-path"><path class="cls-1" d="M157.93,73.75c-2.68,0-5.62,1.68-7,2.56a7.12,7.12,0,0,1-2.71,1.1c-3.51.57-6.17-1.75-6.12-6.25V37.53h0V29H86.81c-4.82,0-7.19-3.52-5.27-7.83l0-.07c.24-.55,3.17-5.47,3.17-8.87h0A12.07,12.07,0,0,0,82.9,5.75l-.33-.5A12.84,12.84,0,0,0,72.07,0,13,13,0,0,0,61.5,5.25a5.39,5.39,0,0,0-.33.5,12.11,12.11,0,0,0-1.89,6.43h0a24.08,24.08,0,0,0,3.27,9c1.94,4.31-.47,7.81-5.29,7.81H3.77A3.79,3.79,0,0,0,0,32.75V138.42a3.78,3.78,0,0,0,3.77,3.79h134.6a3.77,3.77,0,0,0,3.76-3.79V100c0-4,2.81-5.94,6.37-5.26a8.16,8.16,0,0,1,2.72,1.1c1.26.76,3.91,2.5,6.53,2.5,7,0,13.36-5.27,12.95-12.76C170.31,78.55,165,73.75,157.93,73.75Z"/></clipPath></defs><title>Tekengebied 14</title><g class="cls-2"><image width="1280" height="850" transform="matrix(-0.17, 0, 0, 0.17, 215.64, -0.99)" xlink:href="../../afbeeldingen voor blocks/solutions.jpg"/></g><path class="cls-3" d="M157.93,73.75c-2.68,0-5.62,1.68-7,2.56a7.12,7.12,0,0,1-2.71,1.1c-3.51.57-6.17-1.75-6.12-6.25V37.53h0V29H86.81c-4.82,0-7.19-3.52-5.27-7.83l0-.07c.24-.55,3.17-5.47,3.17-8.87h0A12.07,12.07,0,0,0,82.9,5.75l-.33-.5A12.84,12.84,0,0,0,72.07,0,13,13,0,0,0,61.5,5.25a5.39,5.39,0,0,0-.33.5,12.11,12.11,0,0,0-1.89,6.43h0a24.08,24.08,0,0,0,3.27,9c1.94,4.31-.47,7.81-5.29,7.81H3.77A3.79,3.79,0,0,0,0,32.75V138.42a3.78,3.78,0,0,0,3.77,3.79h134.6a3.77,3.77,0,0,0,3.76-3.79V100c0-4,2.81-5.94,6.37-5.26a8.16,8.16,0,0,1,2.72,1.1c1.26.76,3.91,2.5,6.53,2.5,7,0,13.36-5.27,12.95-12.76C170.31,78.55,165,73.75,157.93,73.75Z"/></svg>