<?xml version="1.0" encoding="utf-8"?>
<!-- Generator: Adobe Illustrator 22.1.0, SVG Export Plug-In . SVG Version: 6.00 Build 0)  -->
<svg version="1.1" id="Laag_1" xmlns="http://www.w3.org/2000/svg" xmlns:xlink="http://www.w3.org/1999/xlink" x="0px" y="0px"
	 viewBox="0 0 172.3 114" style="enable-background:new 0 0 172.3 114;" xml:space="preserve">
<style type="text/css">
	.st0{clip-path:url(#SVGID_2_);}
	.st1{opacity:0.5;fill:#F39200;enable-background:new    ;}
</style>
<title>Tekengebied 12</title>
<g>
	<defs>
		<path id="SVGID_1_" d="M157.8,43.9c-3,0-6.4,2.1-7.4,2.9c-0.3,0.2-0.6,0.3-0.9,0.5c-4.2,1.5-7.4-0.7-7.4-5.2l0.1-37.7
			c0-2.6-1.1-4.4-3.2-4.4l-5.6,0.1L4,0C2-0.2,0.2,1.4,0,3.4c0,0,0,0,0,0v104.8c0,2.1,1.6,4.1,3.7,4.1h53.6c4.8,0,7.2-3.5,5.2-7.8
			c0,0-3.2-5.3-3.2-8.8c0.3-7,6.2-12.5,13.2-12.2c6.6,0.3,11.9,5.6,12.2,12.2c0,3.5-3.3,8.7-3.3,8.7c-1.9,4.3,0.5,7.9,5.3,7.9h55.3
			V72.3c0-5.9,3.1-8.3,7-7.2c0.5,0.2,1,0.4,1.5,0.7c1.2,0.8,4.2,2.7,7,2.7c7,0,13-5.5,13-12.3S164.8,43.9,157.8,43.9z"/>
	</defs>
	<clipPath id="SVGID_2_">
		<use xlink:href="#SVGID_1_"  style="overflow:visible;"/>
	</clipPath>
	<g class="st0">
		
			<image style="overflow:visible;enable-background:new    ;" width="1280" height="853" xlink:href="../../blockx/strategy.jpg"  transform="matrix(0.13 0 0 0.13 1.000000e-02 -0.65)">
		</image>
	</g>
</g>
<path class="st1" d="M157.8,43.9c-3,0-6.4,2.1-7.4,2.9c-0.3,0.2-0.6,0.3-0.9,0.5c-4.2,1.5-7.4-0.7-7.4-5.2l0.1-37.7
	c0-2.6-1.1-4.4-3.2-4.4l-5.6,0.1L4,0C2-0.2,0.2,1.4,0,3.4c0,0,0,0,0,0v104.8c0,2.1,1.6,4.1,3.7,4.1h53.6c4.8,0,7.2-3.5,5.2-7.8
	c0,0-3.2-5.3-3.2-8.8c0.3-7,6.2-12.5,13.2-12.2c6.6,0.3,11.9,5.6,12.2,12.2c0,3.5-3.3,8.7-3.3,8.7c-1.9,4.3,0.5,7.9,5.3,7.9h55.3
	V72.3c0-5.9,3.1-8.3,7-7.2c0.5,0.2,1.1,0.4,1.5,0.7c1.2,0.8,4.2,2.7,7,2.7c7,0,13-5.5,13-12.3S164.8,43.9,157.8,43.9z"/>
</svg>
