<svg id="Laag_1" data-name="Laag 1" xmlns="http://www.w3.org/2000/svg" viewBox="0 0 284.61 225.71"><defs><style>.cls-1{fill:#f39200;}.cls-2{fill:#ed7b12;}</style></defs><title>Tekengebied 17 kopie</title><path class="cls-1" d="M157.74,43.9c-3,0-6.39,2.13-7.43,2.88a3.63,3.63,0,0,1-.87.46c-4.22,1.51-7.41-.7-7.41-5.2l.09-37.66C142.12,1.83,141,0,138.91,0l-5.57.06L4,0A3.72,3.72,0,0,0,0,3.47V108.3c0,2.08,1.6,4.14,3.68,4.14H57.29c4.83,0,7.19-3.51,5.25-7.79,0,0-3.18-5.32-3.18-8.84a12.71,12.71,0,0,1,25.4,0c0,3.52-3.28,8.7-3.28,8.7-1.94,4.28.51,7.93,5.34,7.93h55.31V72.29c0-5.9,3.09-8.31,7-7.17a5.46,5.46,0,0,1,1.52.73c1.17.82,4.19,2.72,7,2.72,7,0,13-5.51,13-12.29S164.76,43.9,157.74,43.9Z"/><path class="cls-1" d="M284.62,222a3.76,3.76,0,0,1-3.76,3.76h-135a3.76,3.76,0,0,1-3.77-3.76v-38.1c0-4.5,3.32-6.75,7.76-5.29a3.79,3.79,0,0,1,.94.48c1.07.77,4.2,2.8,7.16,2.8a12.3,12.3,0,1,0,0-24.59c-3.64,0-7.55,3.09-7.55,3.09-4.67,1.94-8.31-.42-8.31-5.1l.06-42.8h53.09c8.17,0,10.29-2.69,8.37-7l0-.07c-.24-.54-2.55-5.14-2.92-8.67h0c-.05-2.34.14-4.81,1.34-6.66.11-.17.21-.37.33-.53a12.43,12.43,0,0,1,11.23-5.89c6,.33,8.4,2.75,10.68,6,.12.16.23.33.34.5A12.45,12.45,0,0,1,226,96.75h0c0,3.75-2.64,8.31-2.88,8.86l0,.07c-1.92,4.27.2,7.27,5,7.27h52.74a3.76,3.76,0,0,1,3.76,3.76V222Z"/><path class="cls-2" d="M185.4,0H145.9a3.76,3.76,0,0,0-3.76,3.76l-.06,38.1c0,4.53,3.45,7.06,7.88,5.28a3.85,3.85,0,0,0,.76-.44c1-.73,4.21-2.83,7.22-2.83a12.3,12.3,0,1,1,0,24.58c-3.65,0-7.55-3.08-7.55-3.08-4.43-1.88-8.31.41-8.31,6.8l.06,40.3h53.12c8.67,0,10.16-2.94,8.22-7.22,0,0-2.83-6-2.83-9.56,0-6.79,5.69-12,12.7-12A12.46,12.46,0,0,1,226,96.41c0,3.52-2.68,8.8-2.68,8.8C221,110,223.15,113,228,113h52.89a4.08,4.08,0,0,0,3.76-4.12V8.47h0V3.73A3.76,3.76,0,0,0,280.86,0H185.4Z"/><path class="cls-2" d="M157.94,157.25c-2.69,0-5.62,1.68-7,2.56a7.24,7.24,0,0,1-2.7,1.1c-3.52.57-6.17-1.75-6.12-6.25V121h0v-8.58H86.81c-4.82,0-7.18-3.52-5.27-7.83a.21.21,0,0,0,0-.07c.25-.55,3.17-5.47,3.17-8.87h0a12.07,12.07,0,0,0-1.84-6.43c-.1-.17-.22-.34-.33-.5a12.81,12.81,0,0,0-10.5-5.25A13.05,13.05,0,0,0,61.5,88.75l-.33.5a12.18,12.18,0,0,0-1.88,6.42h0a23.89,23.89,0,0,0,3.27,9c1.94,4.31-.48,7.81-5.3,7.81H3.77A3.79,3.79,0,0,0,0,116.25V221.92a3.78,3.78,0,0,0,3.77,3.79h134.6a3.78,3.78,0,0,0,3.77-3.79V183.5c0-4,2.81-5.94,6.37-5.26a8.19,8.19,0,0,1,2.71,1.1c1.26.76,3.91,2.5,6.54,2.5,7,0,13.35-5.27,12.94-12.76C170.32,162.05,165,157.25,157.94,157.25Z"/></svg>