<svg id="Laag_1" data-name="Laag 1" xmlns="http://www.w3.org/2000/svg" viewBox="0 0 142.57 142.05"><defs><style>.cls-1{fill:#f39200;}</style></defs><title>Tekengebied 10 kopie</title><path class="cls-1" d="M142.56,138.28a3.77,3.77,0,0,1-3.77,3.77H3.78A3.77,3.77,0,0,1,0,138.28V100.19c0-4.5,3.32-6.75,7.76-5.29a3.79,3.79,0,0,1,.94.48c1.08.77,4.21,2.8,7.16,2.8a12.3,12.3,0,1,0,0-24.59c-3.64,0-7.55,3.08-7.55,3.08C3.66,78.62,0,76.26,0,71.58l.07-42.8H53.16c8.17,0,10.29-2.69,8.38-7l0-.07c-.25-.55-2.56-5.14-2.92-8.67h0c-.06-2.34.13-4.81,1.34-6.66.11-.17.21-.37.32-.53A12.43,12.43,0,0,1,71.48,0c6,.33,8.41,2.75,10.69,6,.11.16.23.33.33.49a12.37,12.37,0,0,1,1.44,6.58h0c0,3.75-2.64,8.31-2.88,8.85L81,22c-1.92,4.27.2,7.27,5,7.27h52.73a3.76,3.76,0,0,1,3.77,3.76V138.28Z"/></svg>