<svg id="Laag_1" data-name="Laag 1" xmlns="http://www.w3.org/2000/svg" xmlns:xlink="http://www.w3.org/1999/xlink" viewBox="0 0 172.3 114.02"><defs><style>.cls-1{fill:none;}.cls-2{clip-path:url(#clip-path);}.cls-3{fill:#f39200;opacity:0.5;}</style><clipPath id="clip-path"><path class="cls-1" d="M157.75,43.9c-3,0-6.38,2.13-7.43,2.88a3.63,3.63,0,0,1-.87.46c-4.22,1.51-7.41-.7-7.41-5.2l.09-37.66C142.13,1.83,141,0,138.92,0l-5.57.06L4,0A3.72,3.72,0,0,0,0,3.47V108.3c0,2.08,1.6,4.14,3.68,4.14H57.31c4.82,0,7.19-3.51,5.25-7.79,0,0-3.19-5.32-3.19-8.84a12.71,12.71,0,0,1,25.4,0c0,3.52-3.28,8.7-3.28,8.7-1.94,4.28.52,7.93,5.34,7.93h55.32V72.29c0-5.9,3.08-8.31,7-7.17a5.28,5.28,0,0,1,1.51.73c1.17.82,4.19,2.72,7,2.72,7,0,13-5.51,13-12.29S164.77,43.9,157.75,43.9Z"/></clipPath></defs><title>Tekengebied 12</title><g class="cls-2"><image width="1280" height="853" transform="translate(0.01 -0.65) scale(0.13 0.13)" xlink:href="../../afbeeldingen voor blocks/strategy.jpg"/></g><path class="cls-3" d="M157.75,43.9c-3,0-6.39,2.13-7.43,2.88a3.63,3.63,0,0,1-.87.46c-4.22,1.51-7.41-.7-7.41-5.2l.09-37.66C142.13,1.83,141,0,138.92,0l-5.57.06L4,0A3.72,3.72,0,0,0,0,3.47V108.3c0,2.08,1.6,4.14,3.68,4.14H57.3c4.83,0,7.19-3.51,5.25-7.79,0,0-3.18-5.32-3.18-8.84a12.71,12.71,0,0,1,25.4,0c0,3.52-3.28,8.7-3.28,8.7-1.94,4.28.52,7.93,5.34,7.93h55.31V72.29c0-5.9,3.09-8.31,7-7.17a5.33,5.33,0,0,1,1.52.73c1.17.82,4.19,2.72,7,2.72,7,0,13-5.51,13-12.29S164.77,43.9,157.75,43.9Z"/></svg>