<?xml version="1.0" encoding="utf-8"?>
<!-- Generator: Adobe Illustrator 22.1.0, SVG Export Plug-In . SVG Version: 6.00 Build 0)  -->
<svg version="1.1" id="Layer_1" xmlns="http://www.w3.org/2000/svg" xmlns:xlink="http://www.w3.org/1999/xlink" x="0px" y="0px"
	 viewBox="0 0 841.9 595.3" style="enable-background:new 0 0 841.9 595.3;" xml:space="preserve">
<style type="text/css">
	.st0{fill:url(#SVGID_1_);}
	.st1{fill:url(#SVGID_2_);}
	.st2{fill:#C65317;}
	.st3{fill:none;stroke:#CCBD00;stroke-width:4;stroke-miterlimit:10;}
	.st4{fill:none;stroke:#AF9A11;stroke-width:4;stroke-miterlimit:10;}
	.st5{fill:none;stroke:#D9CE00;stroke-width:4;stroke-miterlimit:10;}
	.st6{fill:none;stroke:#A58913;stroke-width:4;stroke-miterlimit:10;}
	.st7{fill:#D9CE00;}
	.st8{fill:#CCBD00;}
	.st9{fill:#A58913;}
	.st10{fill:#AF9A11;}
	.st11{fill:#FFFFFF;}
</style>
<g>
	<g>
		<g>
			<g>
				<linearGradient id="SVGID_1_" gradientUnits="userSpaceOnUse" x1="426.2876" y1="267.4002" x2="535.3011" y2="267.4002">
					<stop  offset="0.3821" style="stop-color:#E96032"/>
					<stop  offset="0.8056" style="stop-color:#E96032"/>
				</linearGradient>
				<path class="st0" d="M522.8,350.3c8-15.6,12.5-33.2,12.5-51.9c0-61.3-48.4-111.3-109-113.9v110.1L522.8,350.3z"/>
			</g>
			<g>
				<linearGradient id="SVGID_2_" gradientUnits="userSpaceOnUse" x1="307.2882" y1="267.4002" x2="416.3017" y2="267.4002">
					<stop  offset="6.410257e-02" style="stop-color:#ED7B12"/>
					<stop  offset="1" style="stop-color:#ED7B12"/>
				</linearGradient>
				<path class="st1" d="M319.8,350.3c-8-15.6-12.5-33.2-12.5-51.9c0-61.3,48.4-111.3,109-113.9v110.1L319.8,350.3z"/>
			</g>
			<g>
				<path class="st2" d="M324.5,357.9c9.2,14.9,22.8,30,38.8,39.7c52.4,31.9,120.2,10.6,154-39.8L421.3,302L324.5,357.9z"/>
			</g>
		</g>
		<g>
			<path class="st3" d="M543.9,292.5h37.4C578.8,208,510.8,139.8,426.3,137v37.4C490.1,177.3,541.4,228.6,543.9,292.5z"/>
			<path class="st4" d="M543.9,302.5c-2.5,63.9-53.8,115.3-117.6,118.1V458c84.5-2.8,152.5-70.9,155.1-155.5H543.9z"/>
		</g>
		<g>
			<path class="st5" d="M297.8,292.5c2.6-64.2,54.3-115.8,118.5-118.1V137c-84.9,2.4-153.4,70.7-156,155.5H297.8z"/>
			<path class="st6" d="M297.8,302.5h-37.4c2.6,84.9,71,153.2,156,155.5v-37.4C352,418.3,300.3,366.7,297.8,302.5z"/>
		</g>
	</g>
	<g>
		<path class="st7" d="M294.1,250.7l-4.1,0.2c-0.8,0-1.2,0.2-1.4,0.7l-0.3,0.9l4.6,1.6l-1.1,3.1l-12.6-4.3l1.6-4.6
			c0.9-2.7,2.5-4.4,5.3-3.4c1.8,0.6,2.4,2.2,2.4,3.6l0,0c0,0,0.4-0.6,1.7-0.7l5-0.4L294.1,250.7z M283.2,249.2l-0.5,1.4l3.2,1.1
			l0.4-1.3c0.5-1.3,0-2.2-1-2.5C284.4,247.5,283.7,247.8,283.2,249.2z"/>
		<path class="st7" d="M295.4,236.9l-2.5,5.4l0.1,0c0.8,0.4,1.9,0.3,2.6-1.2c0.5-1,0.6-2.1,0.6-3.1l2.2,0.9c0.1,0.9-0.1,2.2-0.8,3.6
			c-1.6,3.6-3.8,3.7-6.8,2.3c-2.9-1.3-4.3-3.3-2.9-6.6c1.3-2.9,3.5-3.1,6.3-1.8C294.6,236.5,295.4,236.9,295.4,236.9z M289.9,239.2
			c-0.5,1.1,0.3,2,1.2,2.4l1.3-2.9C291.6,238.3,290.5,238,289.9,239.2z"/>
		<path class="st7" d="M301.7,234.7c-0.6,1.1-1.3,2-2.3,2.7l-2-1.3c0.8-0.5,1.7-1.3,2.1-2.2c0.6-1,0.3-1.4-0.1-1.6
			c-0.4-0.2-0.7-0.1-1.4,0.5l-0.5,0.5c-1.1,1-2.4,1.7-4.1,0.7c-1.9-1-1.8-3-0.7-5.1c0.5-1,1.4-1.8,2-2.3l2,1.3
			c-0.8,0.5-1.6,1.4-1.9,1.9c-0.4,0.7-0.3,1.1,0,1.3c0.4,0.2,0.8,0,1.5-0.6l0.5-0.5c1.1-0.9,2.3-1.6,4-0.7
			C302.7,230.5,303,232.4,301.7,234.7z"/>
		<path class="st7" d="M307.8,224.9c-0.8,1.3-1.8,1.5-2.4,1.5l0,0l4.1,2.8l-1.8,2.6l-11.7-7.9l1.7-2.5l0.9,0.6l0,0
			c-0.3-0.9-0.4-2,0.4-3.2c1.5-2.3,3.8-2,6.5-0.1C308.1,220.5,309.3,222.6,307.8,224.9z M303.2,221.1c-1.2-0.8-2.1-0.7-2.7,0.1
			c-0.6,0.8-0.2,1.9,0.8,2.5l1.2,0.8c1,0.7,2.1,0.6,2.6-0.1c0.7-1,0.2-1.9-0.9-2.6L303.2,221.1z"/>
		<path class="st7" d="M313.6,217.2c-2.2,2.7-4.5,2.4-7,0.3c-2.6-2.1-3.3-4.3-1.1-7.1c2.2-2.7,4.4-2.4,7-0.3
			C315,212.2,315.8,214.5,313.6,217.2z M309.8,212.1c-0.9-0.8-1.9-1-2.5-0.2c-0.7,0.8-0.3,1.7,0.7,2.5l1.3,1c0.9,0.8,1.9,1,2.5,0.2
			c0.7-0.8,0.3-1.8-0.7-2.5L309.8,212.1z"/>
		<path class="st7" d="M321.9,207.4l-4.3-4.1c-0.6-0.6-1.3-0.9-2.1-0.1c-0.7,0.7-0.7,1.7-0.1,2.3l4.3,4.2l-2.2,2.3l-7.2-6.9l2.1-2.2
			l0.8,0.8l0,0c0,0-0.3-1.8,1.2-3.3c1.2-1.3,2.9-1.7,4.7,0l5,4.8L321.9,207.4z"/>
		<path class="st7" d="M328.1,201.9c-0.9,0.8-1.9,1.4-3.1,1.8l-1.5-1.9c1-0.2,2-0.7,2.7-1.3c0.9-0.8,0.8-1.2,0.5-1.6
			c-0.3-0.3-0.7-0.3-1.5,0l-0.7,0.3c-1.4,0.6-2.8,0.8-4.1-0.7c-1.4-1.6-0.7-3.4,1.1-5c0.8-0.7,1.9-1.3,2.6-1.5l1.5,1.9
			c-1,0.2-2,0.7-2.5,1.2c-0.6,0.6-0.7,1-0.4,1.3c0.3,0.3,0.7,0.3,1.6-0.1l0.7-0.3c1.3-0.5,2.7-0.8,4,0.7
			C330.5,198.2,330.2,200.1,328.1,201.9z"/>
		<path class="st7" d="M327.1,188.4c-0.8,0.6-2,0.5-2.7-0.3c-0.7-0.8-0.5-2,0.3-2.7c0.8-0.6,2-0.5,2.7,0.3
			C328,186.6,327.9,187.7,327.1,188.4z M332.5,197.8l-6.2-7.8l2.5-2l6.2,7.8L332.5,197.8z"/>
		<path class="st7" d="M341.8,191.3c-1.2,0.9-2.3,0.8-3.1,0.4l0,0l0.5,1l-2.3,1.6l-8.1-11.5l2.6-1.8l2.8,4l0,0
			c0.1-0.8,0.5-1.7,1.6-2.5c2.3-1.6,4.2-0.4,6,2.2C343.7,187.2,344,189.7,341.8,191.3z M338.9,186c-0.8-1.2-1.8-1.4-2.5-0.8
			c-0.8,0.6-0.8,1.7-0.2,2.6l0.9,1.2c0.7,1,1.7,1.3,2.5,0.8c0.9-0.7,0.8-1.7,0.1-2.7L338.9,186z"/>
		<path class="st7" d="M342,177.9c-0.9,0.5-2.1,0.3-2.6-0.6c-0.6-0.9-0.3-2.1,0.6-2.6s2-0.3,2.6,0.6
			C343.2,176.2,342.9,177.4,342,177.9z M346.3,187.9l-5.2-8.5l2.7-1.7l5.2,8.5L346.3,187.9z"/>
		<path class="st7" d="M351.1,185l-6.9-12.3l2.8-1.6l6.9,12.3L351.1,185z"/>
		<path class="st7" d="M352.5,172c-0.9,0.5-2.1,0.1-2.5-0.8c-0.5-0.9-0.1-2.1,0.8-2.6c0.9-0.5,2.1-0.1,2.5,0.8
			C353.7,170.4,353.4,171.6,352.5,172z M356,182.3l-4.6-8.9l2.8-1.4l4.6,8.9L356,182.3z"/>
		<path class="st7" d="M364.4,178.5c-1.8,0.8-3.1,0.3-3.9-1.5l-2-4.3l-1.8,0.8l-1-2.3l1.8-0.8l-1-2.2l2.7-1.6l1.1,2.6l2.1-1l1,2.3
			l-2.1,1l1.7,3.7c0.4,0.8,0.8,0.9,1.4,0.6c0.5-0.2,1-0.7,1-0.7l1.1,2C366.5,177,365.7,177.9,364.4,178.5z"/>
		<path class="st7" d="M373.7,178.8l-3.2,1.2c0.2-2.7,0.1-4.4,0.1-4.4l-7-8l3-1.2l4.4,5.8l0,0l-0.4-7.4l2.9-1.1
			C373.6,163.7,373.9,171.9,373.7,178.8z"/>
	</g>
	<g>
		<path class="st8" d="M483.1,179.6l6.4-11.7l7.2,3.9l-1.2,2.3l-4.4-2.4l-1.2,2.2l4,2.2l-1.2,2.2l-4-2.2l-1.4,2.6l4.4,2.4l-1.2,2.3
			L483.1,179.6z"/>
		<path class="st8" d="M499.3,180.5l-4,6.3l-2.7-1.7l4-6.3l-1.7-1.1l1.4-2.1l1.7,1.1l0.6-1c1.2-1.9,3-1.9,4.8-0.8
			c0.9,0.6,1.3,1.1,1.3,1.1l-1.4,2c0,0-0.3-0.4-0.6-0.6c-0.6-0.4-1.2-0.4-1.6,0.3l-0.4,0.6l2,1.3l-1.4,2.1L499.3,180.5z"/>
		<path class="st8" d="M505.8,185.1l-4.6,5.9l-2.5-1.9l4.6-5.9l-1.6-1.2l1.5-2l1.6,1.2l0.7-0.9c1.4-1.8,3.1-1.7,4.9-0.4
			c0.8,0.6,1.2,1.2,1.2,1.2l-1.6,1.8c0,0-0.3-0.4-0.6-0.6c-0.6-0.4-1.1-0.5-1.7,0.2l-0.4,0.6l1.9,1.4l-1.5,2L505.8,185.1z
			 M504.1,193.2l6.1-7.9l2.5,1.9l-6.1,7.9L504.1,193.2z M511.9,185.6c-0.8-0.6-1-1.8-0.3-2.6c0.6-0.8,1.8-1,2.6-0.4
			c0.8,0.6,1,1.8,0.3,2.7C513.9,186.1,512.7,186.3,511.9,185.6z"/>
		<path class="st8" d="M510.8,199.4c-2.6-2.3-1.9-4.5,0.3-6.9c2.2-2.4,4.4-3.1,7-0.7c1,0.9,1.5,2.1,1.6,2.2l-1.8,1.7
			c0-0.1-0.4-1.1-1.2-1.8c-0.9-0.8-1.9-0.7-3,0.4l-0.6,0.7c-1.1,1.2-0.9,2.3-0.2,3c0.6,0.6,1.3,0.9,2,1.1l-1.5,1.9
			C512.6,200.8,511.8,200.3,510.8,199.4z"/>
		<path class="st8" d="M514.4,202.4l7.1-7l2.2,2.3l-7.1,7L514.4,202.4z M523.2,196c-0.7-0.7-0.7-1.9,0-2.7c0.8-0.7,2-0.7,2.7,0
			c0.7,0.7,0.7,1.9,0,2.7C525.1,196.8,523.9,196.7,523.2,196z"/>
		<path class="st8" d="M526.9,209.9l-3.9-4.5l-0.1,0.1c-0.7,0.6-1.1,1.6,0,2.9c0.7,0.9,1.7,1.5,2.6,1.9l-1.7,1.7
			c-0.8-0.3-1.9-1-3-2.2c-2.6-2.9-1.8-5,0.7-7.2c2.4-2.1,4.8-2.6,7.2,0.2c2.1,2.4,1.3,4.4-1,6.4
			C527.6,209.4,526.9,209.9,526.9,209.9z M527.1,204c-0.8-0.9-1.9-0.6-2.7,0.1l2.1,2.4C527.2,205.9,528,205,527.1,204z"/>
		<path class="st8" d="M528.6,219.1l4.8-3.5c0.7-0.5,1.1-1.2,0.4-2.1c-0.6-0.8-1.6-1-2.2-0.5l-4.8,3.6l-1.9-2.6l8-6l1.8,2.4
			l-0.9,0.7l0,0c0,0,1.8,0,3,1.7c1.1,1.4,1.2,3.2-0.7,4.6l-5.6,4.1L528.6,219.1z"/>
		<path class="st8" d="M533.5,226.9c-1.9-2.9-0.6-4.8,2.1-6.6c2.7-1.8,5.1-1.8,7,1.1c0.8,1.2,0.9,2.4,1,2.5l-2.2,1.2
			c0-0.1-0.1-1.2-0.7-2c-0.6-1-1.7-1.2-3-0.4l-0.8,0.5c-1.4,0.9-1.5,2-0.9,2.8c0.5,0.7,1,1.2,1.6,1.6l-2,1.4
			C534.9,228.6,534.2,227.9,533.5,226.9z"/>
		<path class="st8" d="M534.7,236.3l-1.6-3c2.7-0.2,4.4-0.5,4.4-0.5l7-8.1l1.6,2.9l-5.1,5.2l0,0l7.2-1.4l1.5,2.7
			C549.6,234.2,541.5,235.6,534.7,236.3z"/>
	</g>
	<g>
		<path class="st9" d="M278.2,339.5c-1.5-4.3,0.7-6.1,4.8-7.5c4.1-1.4,7.1-0.9,8.6,3.5c0.6,1.8,0.6,2.6,0.5,3.9l-2.5,0.7
			c0.1-1,0.1-2.1-0.4-3.6c-0.7-2-2.3-2.5-4.4-1.7l-1.6,0.6c-2.5,0.9-3,2.1-2.6,3.4c0.4,1,0.9,1.4,0.9,1.4l2.4-0.8l-0.6-1.6l2.3-0.8
			l1.6,4.5l-6.3,2.2C280.8,343.7,279.2,342.3,278.2,339.5z"/>
		<path class="st9" d="M290.4,349.6c0,0,0-0.3-0.2-0.8c-0.5-1.2-1.8-1.7-2.8-1.3l-4.8,2.1l-1.2-2.9l9.2-3.9l1.2,2.8l-1.3,0.6l0,0
			c0.7,0,2,0.4,2.7,1.9c0.1,0.3,0.2,0.5,0.2,0.5L290.4,349.6z"/>
		<path class="st9" d="M292,360.1l-2.6-5.3l-0.1,0.1c-0.8,0.4-1.5,1.3-0.7,2.8c0.5,1,1.3,1.9,2,2.5l-2.1,1.2
			c-0.7-0.5-1.6-1.5-2.3-2.9c-1.7-3.5-0.4-5.3,2.5-6.7c2.9-1.4,5.3-1.2,6.9,2c1.4,2.9,0.2,4.6-2.6,6
			C292.8,359.7,292,360.1,292,360.1z M293.8,354.4c-0.5-1.1-1.7-1-2.6-0.6l1.4,2.8C293.4,356.2,294.3,355.5,293.8,354.4z"/>
		<path class="st9" d="M292.3,368.9l1-0.7l0,0c0,0-1.7,0.1-2.8-1.8c-1-1.7-0.5-3.2,1.1-4.2c2-1.2,3.9,0,5.2,2.3
			c0.4,0.6,0.6,1.1,0.6,1.1l0.6-0.3c0.8-0.4,0.7-1.2,0.2-2.1c-0.6-1-1.3-1.7-2.2-2.4l2-1.3c1,0.7,1.9,1.8,2.6,2.9
			c1.2,2.1,1.7,4.1-0.9,5.6l-5.8,3.3L292.3,368.9z M295.7,366.5c0,0-0.1-0.3-0.3-0.6c-0.4-0.8-1.2-1.6-2.1-1.1
			c-0.6,0.3-0.7,0.9-0.4,1.4c0.4,0.7,1.4,1,2.5,0.4L295.7,366.5z"/>
		<path class="st9" d="M297,377.1c-1.1-1.7-0.7-3,0.9-4.1l4-2.6l-1.1-1.7l2.1-1.4l1.1,1.7l2.1-1.3l2,2.5l-2.4,1.5l1.3,2l-2.1,1.4
			l-1.3-2l-3.5,2.2c-0.8,0.5-0.8,0.9-0.4,1.5c0.3,0.5,0.8,0.9,0.8,0.9l-1.8,1.4C298.8,379,297.8,378.3,297,377.1z"/>
		<path class="st9" d="M311.2,388.9l-3.7-4.7l-0.1,0.1c-0.7,0.6-1.2,1.6-0.1,2.9c0.7,0.9,1.6,1.6,2.5,2l-1.8,1.6
			c-0.8-0.3-1.8-1.1-2.8-2.4c-2.4-3.1-1.5-5.1,1.1-7.1c2.5-2,5-2.3,7.2,0.6c2,2.5,1.1,4.5-1.3,6.4
			C312,388.4,311.2,388.9,311.2,388.9z M311.8,383c-0.7-0.9-1.9-0.7-2.7-0.1l1.9,2.5C311.8,384.9,312.6,384,311.8,383z"/>
		<path class="st9" d="M313.3,397.7l1.3-3.4l0,0l-3.5,0.8l-2.3-2.6l6-1.1l1.7-5.4l2.3,2.6l-1.1,3l3.1-0.8l2.3,2.6l-5.5,1l-1.8,5.8
			L313.3,397.7z"/>
		<path class="st9" d="M320.9,405.9c-1.1-1.1-1.1-2-1-2.6l0,0l-3.5,3.6l-2.3-2.2l9.9-10.1l2.1,2.1l-0.8,0.8l0,0c0.9-0.2,2,0,3,1
			c2,1.9,1.2,4.1-1,6.4C325.2,407,322.9,407.9,320.9,405.9z M325.5,402.1c1-1,1-2,0.4-2.6c-0.7-0.7-1.8-0.5-2.6,0.3l-1,1
			c-0.9,0.9-1,2-0.3,2.6c0.8,0.8,1.8,0.5,2.7-0.4L325.5,402.1z"/>
		<path class="st9" d="M334.9,412.4l-4.5-3.8l-0.1,0.1c-0.6,0.7-0.8,1.8,0.5,2.9c0.9,0.7,1.9,1.2,2.8,1.5l-1.4,1.9
			c-0.8-0.2-2-0.7-3.3-1.8c-3-2.5-2.5-4.7-0.4-7.2c2.1-2.4,4.4-3.3,7.2-0.9c2.5,2.1,2,4.2,0,6.5
			C335.5,411.7,334.9,412.4,334.9,412.4z M334.3,406.5c-0.9-0.8-2-0.3-2.6,0.5l2.4,2C334.6,408.3,335.2,407.3,334.3,406.5z"/>
		<path class="st9" d="M343.5,414.9c0,0-0.2-0.2-0.6-0.6c-1.1-0.8-2.4-0.6-3.1,0.3l-3.1,4.2l-2.5-1.9l5.9-8l2.4,1.8l-0.8,1.1l0,0
			c0.6-0.3,2-0.7,3.3,0.3c0.3,0.2,0.4,0.4,0.4,0.4L343.5,414.9z"/>
		<path class="st9" d="M340.9,421.9l5.5-8.3l2.6,1.8l-5.5,8.3L340.9,421.9z M348.2,413.9c-0.9-0.6-1.1-1.8-0.5-2.6
			c0.6-0.9,1.8-1.1,2.6-0.5c0.9,0.6,1.1,1.7,0.5,2.6C350.2,414.2,349.1,414.4,348.2,413.9z"/>
		<path class="st9" d="M355.5,426l-5.1-3l-0.1,0.1c-0.5,0.8-0.5,1.9,1,2.7c1,0.6,2.1,0.9,3,1l-1.1,2.1c-0.9,0-2.1-0.4-3.5-1.2
			c-3.4-2-3.3-4.2-1.6-7c1.6-2.8,3.8-4,6.9-2.2c2.8,1.6,2.7,3.8,1.1,6.4C356,425.2,355.5,426,355.5,426z M353.8,420.3
			c-1-0.6-2,0.1-2.5,0.9l2.7,1.6C354.5,422,354.9,420.9,353.8,420.3z"/>
		<path class="st9" d="M361.5,433.5l2.5-5.4c0.4-0.8,0.4-1.5-0.6-2c-0.8-0.4-1.9-0.1-2.2,0.6l-2.6,5.4l-2.9-1.4l4.3-9l2.7,1.3
			l-0.5,1l0,0c0,0,1.6-0.8,3.5,0.1c1.6,0.8,2.6,2.2,1.5,4.4l-3,6.3L361.5,433.5z"/>
		<path class="st9" d="M370.8,437.7c-3.3-1.2-3.4-3.5-2.3-6.5c1.1-3.1,2.9-4.5,6.3-3.3c1.3,0.5,2.2,1.4,2.3,1.4l-1,2.3
			c-0.1-0.1-0.8-0.9-1.7-1.2c-1.1-0.4-2.1,0.1-2.6,1.5l-0.3,0.9c-0.6,1.6,0,2.5,1,2.8c0.8,0.3,1.6,0.3,2.3,0.3l-0.7,2.3
			C372.9,438.2,371.9,438.1,370.8,437.7z"/>
		<path class="st9" d="M385.3,437.5l-5.7-1.6l0,0.1c-0.3,0.9,0,1.9,1.6,2.4c1.1,0.3,2.2,0.3,3.2,0.2l-0.5,2.3
			c-0.8,0.2-2.1,0.2-3.7-0.3c-3.8-1.1-4.2-3.2-3.3-6.4c0.9-3.1,2.7-4.8,6.1-3.8c3.1,0.9,3.5,3,2.7,5.9
			C385.6,436.7,385.3,437.5,385.3,437.5z M382.2,432.4c-1.2-0.3-1.9,0.6-2.2,1.5l3,0.9C383.3,433.9,383.4,432.8,382.2,432.4z"/>
	</g>
	<g>
		<path class="st10" d="M513.3,416.7l-3.3,2.6l-11.2-8.2l2.7-2.1l8.5,6.8l0,0l-4.4-10l2.6-2L513.3,416.7z"/>
		<path class="st10" d="M521.5,409.6l-0.9-0.8l0,0c0,0,0.5,1.6-1.2,3.1c-1.5,1.3-3.1,1.2-4.3-0.2c-1.6-1.7-0.8-3.8,1.1-5.5
			c0.5-0.5,1-0.8,1-0.8l-0.4-0.5c-0.6-0.7-1.3-0.4-2.1,0.3c-0.8,0.8-1.4,1.7-1.9,2.6l-1.7-1.7c0.5-1.1,1.3-2.2,2.3-3.1
			c1.8-1.7,3.6-2.5,5.7-0.3l4.5,5L521.5,409.6z M518.4,406.8c0,0-0.2,0.2-0.5,0.5c-0.7,0.6-1.3,1.5-0.6,2.2c0.5,0.5,1,0.4,1.5,0
			c0.6-0.6,0.7-1.6-0.1-2.5L518.4,406.8z"/>
		<path class="st10" d="M525.7,405.6l-10.1-9.9l2.2-2.3l10.1,9.9L525.7,405.6z"/>
		<path class="st10" d="M534.3,396.3l-1-0.6l0,0c0,0,0.3,1.8-1,3.3c-1.1,1.3-2.8,1.8-4.6,0.2l-5.3-4.5l2.1-2.4l4.5,3.9
			c0.7,0.6,1.4,0.8,2.1,0c0.5-0.6,0.5-1.7-0.2-2.2l-4.5-3.9l2.1-2.4l7.6,6.5L534.3,396.3z"/>
		<path class="st10" d="M539.8,382.4l-3.5,4.8l0.1,0.1c0.7,0.5,1.8,0.7,2.8-0.7c0.7-0.9,1.1-2,1.3-2.9l2,1.3
			c-0.1,0.9-0.6,2.1-1.5,3.4c-2.3,3.2-4.5,2.8-7.1,0.8c-2.6-1.9-3.5-4.2-1.4-7.1c1.9-2.6,4-2.3,6.5-0.5
			C539.1,381.8,539.8,382.4,539.8,382.4z M533.9,383.5c-0.7,1-0.2,2,0.7,2.6l1.9-2.5C535.7,383,534.7,382.4,533.9,383.5z"/>
	</g>
	<g>
		<path class="st11" d="M339.6,263.8c-4,0-4.7-2.8-4.7-6.3c0-3.5,0.9-6.4,5-6.4c1.2,0,2,0.3,2.7,0.6l-0.1,1.7
			c-0.8-0.3-1.6-0.6-2.4-0.6c-2.1,0-3.1,1.4-3.1,3.8v1.8c0,2.7,1.3,3.8,3.1,3.8c0.9,0,1.8-0.4,2.6-0.8l0.1,1.7
			C341.8,263.5,340.9,263.8,339.6,263.8z"/>
		<path class="st11" d="M349.6,263.5l-0.1-1.3h0c0,0-0.8,1.5-2.8,1.5c-2,0-2.8-1.2-2.8-2.7c0-1.9,1.6-3,4.1-3c0.8,0,1.4,0.1,1.4,0.1
			v-1c0-1.1-0.7-1.5-1.9-1.5c-1,0-1.9,0.3-2.8,0.7l-0.1-1.6c0.9-0.4,1.9-0.7,3.2-0.7c2,0,3.5,0.6,3.5,3.1v3.8c0,1,0.1,2.5,0.1,2.5
			H349.6z M349.4,259.5c0,0-0.5-0.1-1.2-0.1c-1,0-2.3,0.4-2.3,1.6c0,0.8,0.6,1.3,1.4,1.3c1.1,0,2.1-1.1,2.1-2.3V259.5z"/>
		<path class="st11" d="M359.8,263.5v-5.7c0-1-0.3-1.9-1.7-1.9c-1.1,0-2.1,0.9-2.1,1.9v5.7h-2v-9.2h1.9v1.2h0c0,0,1-1.4,2.9-1.4
			c1.9,0,2.9,1,2.9,3.1v6.3H359.8z"/>
		<path class="st11" d="M363.8,259.2v-1.6h4.9v1.6H363.8z"/>
		<path class="st11" d="M376.6,263.5l-0.1-1.2h0c-0.5,0.7-1.3,1.4-2.7,1.4c-2.6,0-3.4-2-3.4-4.8c0-2.7,0.9-4.9,3.6-4.9
			c1.5,0,2.2,0.8,2.5,1.3h0v-4.8h2V261c0,1.1,0.1,2.5,0.1,2.5H376.6z M376.4,258.2c0-1.4-1-2.4-2-2.4c-1.4,0-2.1,1.2-2.1,2.7v1.2
			c0,1.6,0.8,2.6,2,2.6c1.2,0,2.1-1.1,2.1-2.3V258.2z"/>
		<path class="st11" d="M384.6,263.8c-2.9,0-4-1.8-4-4.8c0-2.9,1.1-4.9,4.1-4.9c3,0,4,1.8,4,4.8
			C388.7,261.8,387.6,263.8,384.6,263.8z M386.7,258.2c0-1.6-0.7-2.6-2-2.6c-1.3,0-2.1,1-2.1,2.6v1.4c0,1.6,0.7,2.6,2,2.6
			c1.3,0,2.1-1,2.1-2.6V258.2z"/>
		<path class="st11" d="M335.2,285.5v-5.7c0-1-0.2-1.9-1.5-1.9c-1,0-2,0.9-2,1.9v5.7h-2v-5.7c0-1-0.2-1.9-1.5-1.9c-1,0-2,0.9-2,1.9
			v5.7h-2v-9.2h1.9v1.2h0c0,0,1-1.4,2.7-1.4c1.4,0,2.1,0.6,2.5,1.6c0,0,1.1-1.6,2.9-1.6c2.1,0,2.9,1.2,2.9,3.1v6.3H335.2z"/>
		<path class="st11" d="M346.8,281.4h-5.7v0.3c0,1.2,0.6,2.4,2.4,2.4c1,0,2-0.3,2.8-0.7l0.1,1.6c-0.7,0.4-1.8,0.7-3.1,0.7
			c-3.3,0-4.1-1.9-4.1-4.8c0-2.9,1.2-4.8,4.1-4.8c2.2,0,3.6,1.2,3.6,4.3C346.9,280.6,346.8,281.4,346.8,281.4z M343.2,277.5
			c-1.5,0-2.1,1.3-2.1,2.5h3.9C345,278.8,344.7,277.5,343.2,277.5z"/>
		<path class="st11" d="M354.7,285.5v-5.7c0-1-0.3-1.9-1.7-1.9c-1.1,0-2.1,0.9-2.1,1.9v5.7h-2v-9.2h1.9v1.2h0c0,0,1-1.4,2.9-1.4
			c1.9,0,2.9,1,2.9,3.1v6.3H354.7z"/>
		<path class="st11" d="M362.4,285.7c-1.7,0-2.4-0.9-2.4-2.5l0-5.3H358v-1.6h2.1l0-2.3l2-0.2l0,2.6h2.4v1.6h-2.4l0,5
			c0,0.8,0.3,1.2,1,1.2c0.6,0,1.2-0.3,1.2-0.3l0.1,1.5C364.4,285.3,363.5,285.7,362.4,285.7z"/>
		<path class="st11" d="M371.5,285.5l-0.1-1.3h0c0,0-0.8,1.5-2.8,1.5c-2,0-2.8-1.2-2.8-2.7c0-1.9,1.6-3,4.1-3c0.8,0,1.4,0.1,1.4,0.1
			v-1c0-1.1-0.7-1.5-1.9-1.5c-1,0-1.9,0.3-2.8,0.7l-0.1-1.6c0.9-0.4,1.9-0.7,3.2-0.7c2,0,3.5,0.6,3.5,3.1v3.8c0,1,0.1,2.5,0.1,2.5
			H371.5z M371.3,281.4c0,0-0.5-0.1-1.2-0.1c-1,0-2.3,0.4-2.3,1.6c0,0.8,0.6,1.3,1.4,1.3c1.1,0,2.1-1.1,2.1-2.3V281.4z"/>
		<path class="st11" d="M375.9,285.5v-12.9h2v12.9H375.9z"/>
		<path class="st11" d="M381.6,275c-0.7,0-1.3-0.6-1.3-1.3c0-0.7,0.6-1.3,1.3-1.3c0.7,0,1.3,0.6,1.3,1.3
			C382.8,274.5,382.3,275,381.6,275z M380.6,285.5v-9.2h2v9.2H380.6z"/>
		<path class="st11" d="M388.4,285.7c-1.7,0-2.4-0.9-2.4-2.5l0-5.3H384v-1.6h2.1l0-2.3l2-0.2l0,2.6h2.4v1.6H388l0,5
			c0,0.8,0.3,1.2,1,1.2c0.6,0,1.2-0.3,1.2-0.3l0.1,1.5C390.4,285.3,389.5,285.7,388.4,285.7z"/>
		<path class="st11" d="M395.3,289.2h-2.1c1-2,1.7-3.8,1.7-3.8l-3.5-9.2h2.1l2.5,7.2h0l2.5-7.2h2
			C400.3,276.3,397.8,283.6,395.3,289.2z"/>
	</g>
	<g>
		<path class="st11" d="M447,275.2h-3.2V263h3.8c4.4,0,5.2,2.1,5.2,6C452.8,273.1,451.5,275.2,447,275.2z M450.7,268.2
			c0-2.7-1.4-3.5-3.2-3.5h-1.7v8.9h1.1c2.7,0,3.9-1,3.9-3.6V268.2z"/>
		<path class="st11" d="M456.1,264.7c-0.7,0-1.3-0.6-1.3-1.3c0-0.7,0.6-1.3,1.3-1.3c0.7,0,1.3,0.6,1.3,1.3
			C457.3,264.2,456.8,264.7,456.1,264.7z M455.1,275.2V266h2v9.2H455.1z"/>
		<path class="st11" d="M464.3,275.2h-2.3l-3.1-9.2h2l2.3,7.5h0l2.3-7.5h1.9L464.3,275.2z"/>
		<path class="st11" d="M476.2,271.1h-5.7v0.3c0,1.2,0.6,2.4,2.4,2.4c1,0,2-0.3,2.8-0.7l0.1,1.6c-0.7,0.4-1.8,0.7-3.1,0.7
			c-3.3,0-4.1-1.9-4.1-4.8s1.2-4.8,4.1-4.8c2.2,0,3.6,1.2,3.6,4.3C476.3,270.2,476.2,271.1,476.2,271.1z M472.6,267.2
			c-1.5,0-2.1,1.3-2.1,2.5h3.9C474.4,268.4,474.2,267.2,472.6,267.2z"/>
		<path class="st11" d="M483.2,267.7c0,0-0.3-0.1-0.6-0.1c-1.4,0-2.3,1.1-2.3,2.2v5.3h-2V266h1.9v1.4h0c0.1-0.3,0.9-1.6,2.7-1.6
			c0.2,0,0.4,0,0.4,0L483.2,267.7z"/>
		<path class="st11" d="M487.3,275.4c-1,0-1.9-0.2-2.8-0.6l0.1-1.6c0.8,0.4,1.6,0.7,2.5,0.7c1.3,0,1.8-0.6,1.8-1.2
			c0-0.7-0.5-1-1.5-1.4l-0.6-0.2c-1.2-0.5-2.3-1.2-2.3-2.7c0-1.6,1.2-2.6,3.4-2.6c1,0,1.9,0.3,2.5,0.6l-0.1,1.6
			c-0.9-0.5-1.8-0.7-2.3-0.7c-1.1,0-1.5,0.4-1.5,1c0,0.6,0.5,1,1.5,1.4l0.6,0.2c1.3,0.5,2.2,1.1,2.2,2.7
			C490.9,274.3,489.7,275.4,487.3,275.4z"/>
		<path class="st11" d="M494.1,264.7c-0.7,0-1.3-0.6-1.3-1.3c0-0.7,0.6-1.3,1.3-1.3c0.7,0,1.3,0.6,1.3,1.3
			C495.4,264.2,494.8,264.7,494.1,264.7z M493.1,275.2V266h2v9.2H493.1z"/>
		<path class="st11" d="M500.9,275.4c-1.7,0-2.4-0.9-2.4-2.5l0-5.3h-2.1V266h2.1l0-2.3l2-0.2l0,2.6h2.4v1.6h-2.4l0,5
			c0,0.8,0.3,1.2,1,1.2c0.6,0,1.2-0.3,1.2-0.3l0.1,1.5C502.9,275,502,275.4,500.9,275.4z"/>
		<path class="st11" d="M507.9,278.9h-2.1c1-2,1.7-3.8,1.7-3.8l-3.5-9.2h2.1l2.5,7.2h0l2.5-7.2h2C512.9,266,510.3,273.3,507.9,278.9
			z"/>
	</g>
	<g>
		<path class="st11" d="M388,370c-4,0-4.7-2.8-4.7-6.3c0-3.5,0.9-6.4,5-6.4c1.2,0,2,0.3,2.7,0.6l-0.1,1.7c-0.8-0.3-1.6-0.6-2.4-0.6
			c-2.1,0-3.1,1.4-3.1,3.8v1.8c0,2.7,1.3,3.8,3.1,3.8c0.9,0,1.8-0.4,2.6-0.8l0.1,1.7C390.3,369.7,389.3,370,388,370z"/>
		<path class="st11" d="M397.8,362.3c0,0-0.3-0.1-0.6-0.1c-1.4,0-2.3,1.1-2.3,2.2v5.3h-2v-9.2h1.9v1.4h0c0.1-0.3,0.9-1.6,2.7-1.6
			c0.2,0,0.4,0,0.4,0L397.8,362.3z"/>
		<path class="st11" d="M406.7,365.7H401v0.3c0,1.2,0.6,2.4,2.4,2.4c1,0,2-0.3,2.8-0.7l0.1,1.6c-0.7,0.4-1.8,0.7-3.1,0.7
			c-3.3,0-4.1-1.9-4.1-4.8c0-2.9,1.2-4.8,4.1-4.8c2.2,0,3.6,1.2,3.6,4.3C406.8,364.8,406.7,365.7,406.7,365.7z M403.1,361.8
			c-1.5,0-2.1,1.3-2.1,2.5h3.9C404.9,363,404.6,361.8,403.1,361.8z"/>
		<path class="st11" d="M414,369.8l-0.1-1.3h0c0,0-0.8,1.5-2.8,1.5c-2,0-2.8-1.2-2.8-2.7c0-1.9,1.6-3,4.1-3c0.8,0,1.4,0.1,1.4,0.1
			v-1c0-1.1-0.7-1.5-1.9-1.5c-1,0-1.9,0.3-2.8,0.7l-0.1-1.6c0.9-0.4,1.9-0.7,3.2-0.7c2,0,3.5,0.6,3.5,3.1v3.8c0,1,0.1,2.5,0.1,2.5
			H414z M413.7,365.7c0,0-0.5-0.1-1.2-0.1c-1,0-2.3,0.4-2.3,1.6c0,0.8,0.6,1.3,1.4,1.3c1.1,0,2.1-1.1,2.1-2.3V365.7z"/>
		<path class="st11" d="M421.5,370c-1.7,0-2.4-0.9-2.4-2.5l0-5.3h-2.1v-1.6h2.1l0-2.3l2-0.2l0,2.6h2.4v1.6h-2.4l0,5
			c0,0.8,0.3,1.2,1,1.2c0.6,0,1.2-0.3,1.2-0.3l0.1,1.5C423.5,369.6,422.6,370,421.5,370z"/>
		<path class="st11" d="M426.5,359.3c-0.7,0-1.3-0.6-1.3-1.3c0-0.7,0.6-1.3,1.3-1.3c0.7,0,1.3,0.6,1.3,1.3
			C427.7,358.8,427.2,359.3,426.5,359.3z M425.5,369.8v-9.2h2v9.2H425.5z"/>
		<path class="st11" d="M434.7,369.8h-2.3l-3.1-9.2h2l2.3,7.5h0l2.3-7.5h1.9L434.7,369.8z"/>
		<path class="st11" d="M440.6,359.3c-0.7,0-1.3-0.6-1.3-1.3c0-0.7,0.6-1.3,1.3-1.3c0.7,0,1.3,0.6,1.3,1.3
			C441.9,358.8,441.3,359.3,440.6,359.3z M439.6,369.8v-9.2h2v9.2H439.6z"/>
		<path class="st11" d="M447.4,370c-1.7,0-2.4-0.9-2.4-2.5l0-5.3H443v-1.6h2.1l0-2.3l2-0.2l0,2.6h2.4v1.6H447l0,5
			c0,0.8,0.3,1.2,1,1.2c0.6,0,1.2-0.3,1.2-0.3l0.1,1.5C449.4,369.6,448.5,370,447.4,370z"/>
		<path class="st11" d="M454.3,373.5h-2.1c1-2,1.7-3.8,1.7-3.8l-3.5-9.2h2.1l2.5,7.2h0l2.5-7.2h2
			C459.3,360.6,456.8,367.9,454.3,373.5z"/>
	</g>
</g>
</svg>
