<svg xmlns="http://www.w3.org/2000/svg" viewBox="0 0 127.59 60.28"><defs><style>.cls-1{fill:#ef7d15;}.cls-2{fill:#39bbd1;}.cls-3{fill:#585857;}.cls-4{fill:#c9d30f;}.cls-5{fill:#ead82b;}.cls-6{fill:none;stroke:#c7c7c7;stroke-miterlimit:10;}</style></defs><title>LAKRAN_PresentsWOW</title><g id="Laag_2" data-name="Laag 2"><g id="Laag_1-2" data-name="Laag 1"><polygon class="cls-1" points="0.53 0 0.53 4.31 1.89 4.31 1.89 23.4 17.67 23.4 17.67 17.71 13.41 17.71 13.41 19.09 6.3 19.09 6.3 0 0.53 0"/><path class="cls-1" d="M38.4,19.09,32,0H27.59L21.66,19.07l-1.46,0V23.4h4.51l2.11-6.21h6.42l2,6.21H39.9V19.09ZM28.2,12.7l1.72-5.52,1.86,5.52Z"/><polygon class="cls-1" points="42.43 0 42.43 4.26 43.89 4.26 43.89 23.4 48.28 23.4 48.28 15.09 54.82 23.4 60.42 23.4 51.2 11.78 60.42 0 54.96 0 48.46 8.49 48.46 0 42.43 0"/><path class="cls-1" d="M80,19.13l-3.45-6.5S80,11.37,80,6.58,75.34,0,73.75,0H62.95V4.31h1.46V23.4H68.6V14h3.78l5,9.42h4V19.13ZM73.55,9.51h-5V4.35h5a2.87,2.87,0,0,1,1.91,2.58A2.87,2.87,0,0,1,73.55,9.51Z"/><path class="cls-1" d="M102.16,19.09,95.78,0H91.35L85.42,19.07l-1.46,0V23.4h4.51l2.11-6.21H97l2,6.21h4.67V19.09ZM92,12.7l1.72-5.52,1.86,5.52Z"/><polygon class="cls-1" points="106.19 19.05 106.19 23.4 111.95 23.4 111.95 8.37 121.25 23.4 125.64 23.4 125.64 4.47 127.06 4.47 127.06 0 121.34 0 121.34 15.07 111.99 0 107.57 0 107.57 19.05 106.19 19.05"/><rect class="cls-2" x="120.57" y="41.43" width="7.02" height="18.84" transform="translate(248.16 101.71) rotate(180)"/><path class="cls-3" d="M50.41,59.84H44.92L42.24,45.66h-.06L39.51,59.84H34l-4.36-18.4H34.1l2.65,14.18h.06l2.62-14.18h5.88l2.43,14.18h0l2.68-14.18H54.8Z"/><path class="cls-3" d="M63.46,60.28c-6.48,0-7.67-3.7-7.67-9.66S57.23,41,63.74,41s7.67,3.7,7.67,9.63S70,60.28,63.46,60.28Zm3.39-10.76c0-3.39-1-5-3.23-5s-3.28,1.57-3.28,5v2.24c0,3.39,1,4.94,3.23,4.94s3.28-1.55,3.28-4.94Z"/><path class="cls-3" d="M93.15,59.84H87.66L85,45.66h-.06L82.25,59.84H76.76L72.4,41.43h4.44L79.5,55.62h.06l2.62-14.18H88l2.43,14.18h0l2.68-14.18h4.36Z"/><rect class="cls-2" y="41.43" width="7.02" height="18.84"/><rect class="cls-4" x="9.86" y="41.43" width="4.97" height="18.84"/><rect class="cls-5" x="17.68" y="41.43" width="4.08" height="18.84"/><rect class="cls-4" x="112.75" y="41.43" width="4.97" height="18.84" transform="translate(230.48 101.71) rotate(180)"/><rect class="cls-5" x="105.83" y="41.43" width="4.08" height="18.84" transform="translate(215.73 101.71) rotate(180)"/><path class="cls-3" d="M36.49,35.36h-.82L37,29h2c1.48,0,1.89.81,1.69,1.74a2.29,2.29,0,0,1-2.26,1.9H37.08Zm1.86-3.48a1.34,1.34,0,0,0,1.47-1.1c.18-.87-.33-1.07-1-1.07H37.69l-.47,2.17Z"/><path class="cls-3" d="M44.23,29H46.4c1.07,0,1.8.5,1.55,1.74a2.52,2.52,0,0,1-1.68,1.79l1,2.59-.81.43-1-2.89H44.27l-.58,2.73h-.82Zm1.28,2.92a1.52,1.52,0,0,0,1.58-1.18c.12-.58-.13-1-.87-1H44.89l-.47,2.18Z"/><path class="cls-3" d="M51.69,29h4l-.16.74H52.35l-.4,1.91h2.61l-.16.74H51.79l-.48,2.27h3.16l-.16.74h-4Z"/><path class="cls-3" d="M58.54,33.34c0,.78.25,1.36,1.1,1.36a1.38,1.38,0,0,0,1.43-1.08c.17-.78-.45-1-1-1.24-.86-.39-1.68-.64-1.42-1.84a2.2,2.2,0,0,1,2.23-1.68,1.48,1.48,0,0,1,1.61,1.61l-.83.23c0-.63-.26-1.07-1-1.07a1.17,1.17,0,0,0-1.21.85c-.13.6.2.78.64,1l1.24.6a1.3,1.3,0,0,1,.56,1.5,2.37,2.37,0,0,1-2.43,1.9,1.62,1.62,0,0,1-1.73-1.9Z"/><path class="cls-3" d="M66.41,29h4l-.16.74H67.08l-.4,1.91h2.61l-.16.74H66.51L66,34.63H69.2l-.16.74h-4Z"/><path class="cls-3" d="M73.4,29h1l1.32,5.38,0,0,.28-1.66.78-3.7h.82L76.3,35.36h-1L73.95,30l0,0-.28,1.67-.78,3.69H72Z"/><path class="cls-3" d="M82.34,29.71H80.57l.16-.74H85l-.16.74H83.16L82,35.36h-.82Z"/><path class="cls-3" d="M88,33.34c0,.78.25,1.36,1.1,1.36a1.38,1.38,0,0,0,1.43-1.08c.17-.78-.45-1-1-1.24-.86-.39-1.68-.64-1.42-1.84a2.2,2.2,0,0,1,2.23-1.68,1.48,1.48,0,0,1,1.61,1.61l-.83.23c0-.63-.26-1.07-1-1.07a1.17,1.17,0,0,0-1.21.85c-.13.6.2.78.64,1l1.24.6a1.3,1.3,0,0,1,.56,1.5,2.37,2.37,0,0,1-2.43,1.9,1.62,1.62,0,0,1-1.73-1.9Z"/><line class="cls-6" x1="95.43" y1="32.16" x2="127.06" y2="32.16"/><line class="cls-6" x1="0.53" y1="32.16" x2="31.23" y2="32.16"/></g></g></svg>